<svg enable-background="new 0 0 32 32" height="32" viewBox="0 0 32 32" width="32" xmlns="http://www.w3.org/2000/svg"><g id="telegram"><g><path d="m24.687 30.163c-.402 0-.843-.132-1.32-.395l-10.803-7.976c-.121-.089-.195-.228-.203-.378-.007-.15.053-.295.165-.396l12.796-11.515c.205-.185.521-.169.706.037.185.205.168.521-.037.706l-12.34 11.106 10.254 7.576c.271.145.729.329 1.055.178.332-.152.496-.637.576-1.017l4.375-20.617c.17-.681.088-1.229-.215-1.481-.231-.192-.575-.206-.947-.038l-25.716 9.918c-.789.317-1.037.643-1.033.751.003.071.173.267.68.422l6.375 1.99 6.999-4.416c.234-.146.542-.077.689.156s.078.542-.156.689l-7.194 4.539c-.124.078-.277.098-.416.055l-6.592-2.058c-1.17-.358-1.37-.99-1.384-1.335-.02-.473.253-1.157 1.667-1.723l25.695-9.908c.697-.318 1.445-.25 1.974.191.613.511.813 1.413.549 2.474l-4.371 20.598c-.184.878-.566 1.457-1.137 1.719-.215.099-.445.148-.691.148z" fill="#263238"/></g><path d="m24.687 30.163c-.402 0-.843-.132-1.32-.395l-6.72-4.959c-.222-.164-.27-.478-.105-.699.164-.222.478-.27.699-.105l6.664 4.923c.271.145.729.329 1.055.178.332-.152.496-.637.576-1.017l4.375-20.617c.17-.681.088-1.229-.215-1.481-.231-.192-.575-.206-.947-.038l-25.716 9.918c-.789.317-1.037.643-1.033.751.003.071.173.267.68.422l6.594 2.058c.158.049.281.174.33.332l2.267 7.461c.061.167.108.333.149.477.032.114.072.256.099.298-.004-.005.076.019.289.02.447 0 .617-.167.957-.498l1.66-1.614c.198-.194.514-.188.707.01.192.198.188.515-.01.707l-1.632 1.585c-.402.393-.828.809-1.682.809-.98 0-1.178-.434-1.351-1.046-.035-.124-.075-.267-.135-.432l-2.198-7.233-6.339-1.979c-1.17-.358-1.37-.99-1.384-1.335-.02-.473.253-1.157 1.667-1.723l25.695-9.908c.697-.318 1.445-.25 1.974.191.613.511.813 1.413.549 2.474l-4.371 20.598c-.184.878-.566 1.457-1.137 1.719-.215.099-.445.148-.691.148z" fill="#263238"/><g><g><g><g><g><g><path d="m18.5 14c0 .275-.225.5-.5.5-.275 0-.5-.225-.5-.5 0-.275.225-.5.5-.5.275 0 .5.225.5.5z" fill="#263238"/></g></g></g></g></g></g></g></svg>