<?xml version="1.0"?>
<svg xmlns="http://www.w3.org/2000/svg" viewBox="0 0 24 24"><title/><path d="M18.5,21a.49971.49971,0,0,0-.5.5V22a1.001,1.001,0,0,1-1,1H3a1.001,1.001,0,0,1-1-1V2A1.001,1.001,0,0,1,3,1H13V4a2.00229,2.00229,0,0,0,2,2h3V9.5a.5.5,0,0,0,1,0v-4a.49965.49965,0,0,0-.14648-.35352l-5-5A.49965.49965,0,0,0,13.5,0H3A2.00229,2.00229,0,0,0,1,2V22a2.00229,2.00229,0,0,0,2,2H17a2.00229,2.00229,0,0,0,2-2v-.5A.49971.49971,0,0,0,18.5,21ZM14,4V1.707L17.293,5H15A1.001,1.001,0,0,1,14,4Z"/><path d="M22.5,11H4.5a.49971.49971,0,0,0-.5.5v8a.49971.49971,0,0,0,.5.5h18a.49971.49971,0,0,0,.5-.5v-8A.49971.49971,0,0,0,22.5,11ZM22,19H5V12H22Z"/><path d="M11.5,17h-1a.5.5,0,0,0,0,1h1a1.5,1.5,0,0,0,0-3,.5.5,0,0,1,0-1h1a.5.5,0,0,0,0-1h-1a1.5,1.5,0,0,0,0,3,.5.5,0,0,1,0,1Z"/><path d="M7.5,18A1.50164,1.50164,0,0,0,9,16.5v-3a.5.5,0,0,0-1,0v3a.5.5,0,0,1-1,0,.5.5,0,0,0-1,0A1.50164,1.50164,0,0,0,7.5,18Z"/><path d="M18.5,18a.49971.49971,0,0,0,.5-.5V14h.5a.50065.50065,0,0,1,.5.5v3a.5.5,0,0,0,1,0v-3A1.50164,1.50164,0,0,0,19.5,13h-1a.49971.49971,0,0,0-.5.5v4A.49971.49971,0,0,0,18.5,18Z"/><path d="M15.5,18A1.50164,1.50164,0,0,0,17,16.5v-2a1.5,1.5,0,0,0-3,0v2A1.50164,1.50164,0,0,0,15.5,18ZM15,14.5a.5.5,0,0,1,1,0v2a.5.5,0,0,1-1,0Z"/></svg>
