<?xml version="1.0"?>
<svg xmlns="http://www.w3.org/2000/svg" id="Icons" viewBox="0 0 60 60" width="512" height="512"><path d="M43,26a17.052,17.052,0,0,0-3,.281V9.83A2.985,2.985,0,0,0,39.117,7.7L32.3.883A2.985,2.985,0,0,0,30.17,0H3A3,3,0,0,0,0,3V51a3,3,0,0,0,3,3H30.062A16.993,16.993,0,1,0,43,26ZM36.586,8H32V3.414ZM3,52a1,1,0,0,1-1-1V3A1,1,0,0,1,3,2H30V8a2,2,0,0,0,2,2h6V26.753a16.971,16.971,0,0,0-6,3.309V28a3.015,3.015,0,0,0-3-3,3,3,0,0,0-3,3v4a3,3,0,0,0,2.091,2.844A16.9,16.9,0,0,0,28.6,52ZM29,33a1,1,0,0,1-1-1V28a1,1,0,0,1,1-1,.977.977,0,0,1,.713.307A.959.959,0,0,1,30,28v4c0,.029-.007.05-.009.078-.227.27-.436.555-.647.84A.9.9,0,0,1,29,33ZM43,58A15,15,0,1,1,58,43,15.017,15.017,0,0,1,43,58Z"/><path d="M52.483,35.094a2,2,0,0,0-1.577-1.577l-2.385-.478a2.006,2.006,0,0,0-1.817.55L39.39,40.9a6.044,6.044,0,0,0-5.425,9.312,6.094,6.094,0,0,0,4.478,2.747q.315.031.627.032A6.032,6.032,0,0,0,45.1,46.61L52.413,39.3a2.011,2.011,0,0,0,.548-1.816ZM51,37.882,49.081,39.8l-.725-.724a1,1,0,0,0-1.414,1.414l.725.724L46.219,42.66l-.724-.724a1,1,0,1,0-1.414,1.414l.724.724L43.35,45.529a1,1,0,0,0-.284.845,4.057,4.057,0,1,1-4.034-3.481,4.257,4.257,0,0,1,.594.041.99.99,0,0,0,.845-.284L48.129,35l2.393.486L51,37.871Z"/><path d="M7,12a3,3,0,0,0-3,3v4a3,3,0,0,0,6,0V15A3,3,0,0,0,7,12Zm1,7a1,1,0,0,1-2,0V15a1,1,0,0,1,2,0Z"/><path d="M7,25a3,3,0,0,0-3,3v4a3,3,0,0,0,6,0V28A3,3,0,0,0,7,25Zm1,7a1,1,0,0,1-2,0V28a1,1,0,0,1,2,0Z"/><path d="M15,35a3,3,0,0,0,3-3V28a3,3,0,0,0-6,0v4A3,3,0,0,0,15,35Zm-1-7a1,1,0,0,1,2,0v4a1,1,0,0,1-2,0Z"/><path d="M33,22a3,3,0,0,0,3-3V15a3,3,0,0,0-6,0v4A3,3,0,0,0,33,22Zm-1-7a1,1,0,0,1,2,0v4a1,1,0,0,1-2,0Z"/><path d="M12,21a1,1,0,0,0,1,1h2a1,1,0,0,0,0-2V13a1,1,0,0,0-1.707-.707l-1,1A1,1,0,0,0,13,15v5A1,1,0,0,0,12,21Z"/><path d="M20,22a3,3,0,0,0,3-3V15a3,3,0,0,0-6,0v4A3,3,0,0,0,20,22Zm-1-7a1,1,0,0,1,2,0v4a1,1,0,0,1-2,0Z"/><path d="M7,38a3,3,0,0,0-3,3v4a3,3,0,0,0,6,0V41A3,3,0,0,0,7,38Zm1,7a1,1,0,0,1-2,0V41a1,1,0,0,1,2,0Z"/><path d="M20,38a3,3,0,0,0-3,3v4a3,3,0,0,0,6,0V41A3,3,0,0,0,20,38Zm1,7a1,1,0,0,1-2,0V41a1,1,0,0,1,2,0Z"/><path d="M28,22a1,1,0,0,0,0-2V13a1,1,0,0,0-1.707-.707l-1,1A1,1,0,0,0,26,15v5a1,1,0,0,0,0,2Z"/><path d="M15,46V39a1,1,0,0,0-1.707-.707l-1,1A1,1,0,0,0,13,41v5a1,1,0,0,0,0,2h2a1,1,0,0,0,0-2Z"/><path d="M23,33V26a1,1,0,0,0-1.707-.707l-1,1A1,1,0,0,0,21,28v5a1,1,0,0,0,0,2h2a1,1,0,0,0,0-2Z"/><path d="M38.341,46.229a1,1,0,0,0-1.414,1.414l1.43,1.43a1,1,0,0,0,1.414-1.414Z"/></svg>
